<svg width="300" height="220" viewBox="0 0 300 220" fill="none" xmlns="http://www.w3.org/2000/svg">
<g clip-path="url(#clip0_1323_48079)">
<path d="M165.6 35.0819C167.123 34.8691 168.53 35.9243 168.744 37.4389C168.859 38.249 168.593 39.0582 168.105 39.7163C166.101 42.4176 165.117 45.8719 165.624 49.4596C166.651 56.7289 173.406 61.7937 180.713 60.772C188.019 59.7504 193.11 53.0292 192.083 45.7599C191.576 42.1722 189.674 39.1214 186.999 37.0744C186.347 36.5757 185.868 35.8706 185.754 35.0605C185.54 33.5459 186.6 32.1456 188.123 31.9326L216.55 27.9577C219.682 27.5199 222.577 29.6905 223.017 32.8059L227.012 61.088C227.226 62.6031 228.634 63.6587 230.157 63.4458C230.971 63.3319 231.681 62.8553 232.182 62.2067C234.239 59.5455 237.304 57.6527 240.91 57.1486C248.217 56.1269 254.972 61.1917 255.999 68.461C257.026 75.7303 251.935 82.4515 244.629 83.4731C241.023 83.9773 237.552 82.9984 234.838 81.0045C234.176 80.5185 233.362 80.2549 232.548 80.3687C231.025 80.5817 229.964 81.9826 230.178 83.4977L234.306 112.72C234.746 115.835 232.564 118.716 229.433 119.154L201.006 123.128C199.483 123.341 198.075 122.286 197.861 120.771C197.747 119.96 198.012 119.151 198.5 118.492C200.504 115.791 201.488 112.338 200.981 108.751C199.954 101.482 193.199 96.4168 185.892 97.4384C178.586 98.46 173.495 105.181 174.522 112.451C175.029 116.038 176.931 119.087 179.606 121.134C180.258 121.633 180.737 122.339 180.852 123.149C181.066 124.664 180.004 126.065 178.482 126.278L141.919 131.39L129.037 40.1943L165.6 35.0819Z" fill="#F2F3F1"/>
<path d="M197.861 120.771C197.747 119.96 198.012 119.151 198.5 118.492C200.504 115.791 201.488 112.338 200.981 108.751C199.954 101.482 193.199 96.4168 185.892 97.4384C178.586 98.46 173.495 105.181 174.522 112.451C175.029 116.038 176.931 119.087 179.606 121.134C180.258 121.633 180.737 122.339 180.852 123.149C181.066 124.664 180.004 126.065 178.482 126.278L178.256 124.679C178.891 124.591 179.334 124.006 179.245 123.374C179.2 123.059 179 122.707 178.617 122.414C175.62 120.12 173.484 116.698 172.915 112.675C171.764 104.523 177.473 96.9856 185.667 95.8399C193.86 94.6942 201.436 100.374 202.588 108.526C203.156 112.549 202.051 116.424 199.805 119.451C199.518 119.838 199.423 120.232 199.468 120.546C199.557 121.178 200.145 121.619 200.78 121.53L201.006 123.128C199.483 123.341 198.075 122.286 197.861 120.771ZM229.207 117.555L229.433 119.154L201.006 123.128L200.78 121.53L229.207 117.555ZM232.699 112.945L228.571 83.7223C228.232 81.3245 229.912 79.1073 232.322 78.7703C233.635 78.5867 234.867 79.0198 235.801 79.7059L236.256 80.0243C238.57 81.5615 241.433 82.2899 244.403 81.8747L244.629 83.4731C241.023 83.9773 237.552 82.9983 234.838 81.0045C234.176 80.5185 233.362 80.2549 232.548 80.3687C231.025 80.5817 229.964 81.9826 230.178 83.4977L234.306 112.72C234.746 115.835 232.564 118.716 229.433 119.154L229.207 117.555C231.451 117.241 233.014 115.177 232.699 112.945ZM164.017 49.6842C163.449 45.6614 164.553 41.785 166.8 38.7575L166.899 38.6126C167.109 38.2734 167.176 37.9379 167.138 37.6635C167.048 37.0317 166.461 36.5916 165.826 36.6803L130.87 41.5681L143.3 129.567L178.256 124.679L178.482 126.278L141.919 131.39L129.037 40.1943L165.6 35.0819C167.123 34.8691 168.53 35.9243 168.744 37.4389C168.859 38.2489 168.593 39.0582 168.105 39.7163C166.101 42.4176 165.117 45.8718 165.624 49.4595C166.651 56.7289 173.406 61.7936 180.713 60.772C188.019 59.7504 193.11 53.0292 192.083 45.7599C191.576 42.1722 189.674 39.1214 186.999 37.0744C186.347 36.5757 185.868 35.8706 185.754 35.0605C185.54 33.5459 186.6 32.1456 188.123 31.9326L216.55 27.9577C219.682 27.5199 222.577 29.6905 223.017 32.8059L227.012 61.088C227.226 62.603 228.634 63.6587 230.157 63.4458C230.971 63.3319 231.681 62.8552 232.182 62.2067C234.239 59.5455 237.304 57.6527 240.91 57.1485C248.217 56.1269 254.972 61.1917 255.999 68.461C257.026 75.7303 251.935 82.4515 244.629 83.4731L244.403 81.8747C250.822 80.9771 255.295 75.0723 254.392 68.6857C253.49 62.299 247.555 57.8494 241.136 58.747C237.968 59.19 235.277 60.8506 233.468 63.1906C232.76 64.1064 231.696 64.8606 230.383 65.0442C227.973 65.3812 225.744 63.7104 225.405 61.3126L221.41 33.0306C221.095 30.7979 219.02 29.2424 216.776 29.5562L188.349 33.5311C187.713 33.62 187.271 34.204 187.36 34.8359C187.405 35.1493 187.604 35.5013 187.988 35.7948L188.266 36.0134C191.118 38.3037 193.139 41.6381 193.69 45.5352C194.841 53.6873 189.132 61.2248 180.939 62.3705C172.745 63.5162 165.169 57.8362 164.017 49.6842Z" fill="#BDBDBD"/>
<path d="M191.213 86.8607C188.649 87.2192 186.602 86.6017 184.748 85.1459C184.249 84.7539 184.223 84.2892 184.61 83.7931L185.394 82.7864C185.791 82.2691 186.291 82.1992 186.913 82.4751C188.004 82.9822 189.056 83.1714 190.14 83.0198C191.374 82.8474 192.334 81.8161 192.178 80.7164C192.023 79.6168 190.925 78.8732 189.633 79.0538C189.25 79.1074 188.912 79.2405 188.619 79.4199C188.153 79.7291 187.825 79.9334 187.258 79.9532L185.371 79.9928C184.664 80.0059 184.275 79.6908 184.272 79.0581L184.232 71.3261C184.234 70.7257 184.566 70.3625 185.248 70.2672L193.978 69.0465C194.686 68.9475 195.11 69.2313 195.198 69.8522L195.467 71.7605C195.555 72.3814 195.226 72.7705 194.518 72.8694L189.462 73.5764C189.466 74.3081 189.466 75.06 189.457 75.7934C189.657 75.7524 189.863 75.7104 190.077 75.6804C193.653 75.1803 196.924 76.9657 197.372 80.1353C197.82 83.3049 195.497 86.2617 191.213 86.8607Z" fill="#0F1599"/>
<path d="M203.758 67.3821C208.263 66.7521 211.267 70.026 211.984 75.0974C212.7 80.1687 210.718 84.1332 206.213 84.7631C201.708 85.393 198.705 82.1256 197.988 77.0542C197.272 71.9829 199.24 68.0138 203.758 67.3821ZM205.642 80.7202C207.012 80.5287 207.459 78.6786 207.05 75.7872C206.642 72.8957 205.706 71.239 204.33 71.4314C202.954 71.6238 202.52 73.4721 202.928 76.3635C203.337 79.255 204.272 80.9117 205.642 80.7202Z" fill="#0F1599"/>
<path d="M146.321 55.7588C150.553 55.1671 155.021 56.1869 158.707 58.9501C166.079 64.4773 167.552 74.9055 161.997 82.2404L140.841 110.175L112.764 89.1244C105.392 83.5972 103.919 73.1689 109.474 65.8341C112.252 62.1667 116.265 59.9614 120.498 59.3696C124.73 58.778 129.197 59.7977 132.883 62.5609L134.261 63.5917L135.297 62.2233C138.075 58.5559 142.089 56.3506 146.321 55.7588Z" fill="#EB2726"/>
<path d="M146.321 55.7592C150.554 55.1674 155.022 56.1861 158.708 58.9498C166.08 64.477 167.553 74.9057 161.998 82.2405L140.841 110.174L112.764 89.1247C105.392 83.5975 103.919 73.1688 109.474 65.8339C112.252 62.1665 116.265 59.9618 120.497 59.37C124.73 58.7782 129.198 59.797 132.884 62.5606L134.261 63.5927L135.298 62.2231C138.076 58.5556 142.089 56.351 146.321 55.7592ZM145.691 51.2954C140.958 51.9571 136.674 54.1352 133.4 57.5014C129.321 55.1634 124.607 54.2433 119.867 54.9062C114.245 55.6924 109.272 58.6113 105.851 63.1178C98.8013 72.4261 100.677 85.7069 110.033 92.7212L141.733 116.487L165.62 84.9487C169.032 80.4433 170.481 74.8751 169.69 69.2815C168.9 63.6879 165.966 58.7405 161.437 55.3375C156.908 51.9424 151.312 50.5013 145.689 51.2875L145.691 51.2954Z" fill="#F2F3F1"/>
<path d="M80.7703 19.1418C88.0767 18.1201 94.8313 23.1845 95.8584 30.4536C96.3651 34.0409 95.3829 37.4945 93.3788 40.1956C92.8904 40.8539 92.6259 41.6633 92.7403 42.4735C92.9543 43.9882 94.3608 45.0442 95.8832 44.8319L130.926 39.932L133.408 57.4983L133.404 57.5037C129.324 55.1659 124.61 54.2441 119.87 54.9068C114.248 55.6929 109.275 58.6137 105.855 63.1203C98.8047 72.4285 100.681 85.7082 110.036 92.7225L141.736 116.488L141.74 116.483L143.809 131.129L108.766 136.028C107.244 136.242 106.184 137.641 106.398 139.155C106.512 139.965 106.991 140.673 107.643 141.172C110.317 143.219 112.218 146.268 112.725 149.854C113.752 157.124 108.662 163.846 101.356 164.868C94.0492 165.889 87.294 160.823 86.2671 153.554C85.7606 149.967 86.7455 146.515 88.7494 143.814C89.2378 143.155 89.502 142.344 89.3876 141.533C89.1731 140.019 87.765 138.965 86.2426 139.178L57.8151 143.153C54.684 143.59 51.7889 141.418 51.3488 138.303L47.2989 109.633C47.0857 108.121 48.144 106.724 49.6629 106.511C50.4801 106.397 51.2971 106.665 51.9585 107.156C54.6772 109.174 58.1522 110.167 61.7585 109.663C69.0644 108.641 74.1461 101.86 73.1089 94.5153C72.0714 87.1705 65.3075 82.0436 58.0013 83.0648C54.3948 83.5691 51.33 85.4785 49.2759 88.1648C48.7762 88.8181 48.0644 89.2969 47.2473 89.4112C45.7282 89.6233 44.3237 88.5706 44.1102 87.0593L40.0603 58.3891C39.6204 55.2741 41.8018 52.3943 44.9327 51.9561L73.3603 47.9812C74.883 47.7682 75.9444 46.3669 75.7304 44.8519C75.616 44.042 75.137 43.3362 74.4856 42.8374C71.8108 40.7905 69.9074 37.7404 69.4007 34.1531C68.3741 26.884 73.4642 20.1636 80.7703 19.1418Z" fill="#0F1599"/>
<path d="M89.1501 131.333C86.586 131.692 84.5395 131.074 82.6856 129.619C82.1867 129.227 82.1608 128.762 82.5474 128.266L83.3319 127.259C83.7289 126.742 84.2287 126.672 84.8502 126.948C85.9412 127.455 86.9939 127.644 88.078 127.492C89.3113 127.32 90.271 126.289 90.1157 125.189C89.9604 124.089 88.8624 123.346 87.5707 123.526C87.1877 123.58 86.849 123.713 86.5567 123.893C86.0906 124.202 85.762 124.406 85.1956 124.426L83.308 124.466C82.6016 124.479 82.2129 124.163 82.2095 123.531L82.1698 115.799C82.171 115.198 82.5037 114.835 83.1853 114.74L91.9159 113.519C92.6235 113.42 93.0475 113.704 93.1352 114.325L93.4048 116.233C93.4925 116.854 93.1635 117.243 92.456 117.342L87.3993 118.049C87.4034 118.781 87.4037 119.533 87.3947 120.266C87.5941 120.225 87.8 120.183 88.0142 120.153C91.5909 119.653 94.8616 121.438 95.3093 124.608C95.757 127.778 93.4343 130.734 89.1501 131.333Z" fill="#F2F3F1"/>
<path d="M101.695 111.855C106.2 111.225 109.205 114.499 109.921 119.57C110.637 124.641 108.656 128.606 104.151 129.236C99.6458 129.866 96.6424 126.598 95.926 121.527C95.2096 116.456 97.1775 112.486 101.695 111.855ZM103.58 125.193C104.949 125.001 105.396 123.151 104.988 120.26C104.579 117.368 103.644 115.712 102.267 115.904C100.891 116.096 100.457 117.945 100.866 120.836C101.274 123.728 102.21 125.384 103.58 125.193Z" fill="#F2F3F1"/>
<path d="M248.749 15.6356C249.212 15.6601 249.693 15.8272 250.191 16.137C250.682 16.3897 251.097 16.7233 251.435 17.1379C251.766 17.4955 251.963 17.931 252.026 18.4444C252.088 18.9578 251.948 19.4605 251.605 19.9524C251.35 20.2223 250.856 20.4229 250.124 20.5543C249.392 20.6856 248.541 20.7822 247.57 20.8442C246.65 20.8522 240.912 20.8605 239.818 20.8593C238.776 20.8042 237.762 20.7505 236.778 20.6985C236.511 21.8179 236.273 22.9389 236.065 24.0614C235.856 25.1839 234.071 32.0328 233.804 33.1522C233.612 33.9355 233.182 34.4229 232.514 34.6143C231.847 34.8057 231.217 34.829 230.624 34.6843C229.915 34.5334 229.236 34.1575 228.588 33.5564C227.939 32.9553 227.711 32.2631 227.903 31.4798C228.031 30.6364 229.735 24.0667 229.921 23.2263C230.106 22.386 230.288 21.5171 230.467 20.6197C229.033 20.6572 227.598 20.6947 226.164 20.7322C224.788 20.7728 220.246 21.2127 218.995 20.8631C218.222 20.6521 217.626 20.2522 217.209 19.6634C216.85 19.0777 216.694 18.5026 216.74 17.9383C216.838 17.32 217.152 16.8265 217.682 16.4579C218.213 16.0892 219.01 16.018 220.073 16.2443C221.457 16.2607 226.068 15.6828 227.451 15.6993C228.885 15.6618 230.29 15.6228 231.667 15.5822C232.044 13.9586 232.455 12.365 232.898 10.8014C233.391 9.18392 234.277 5.3485 234.713 3.72791C234.906 2.94461 235.404 2.54588 236.208 2.53173C237.063 2.4636 237.729 2.49883 238.206 2.63742C238.871 2.8993 239.441 3.32618 239.916 3.91807C240.39 4.50996 240.532 5.19755 240.339 5.98085C239.977 7.2653 239.191 10.7376 238.823 11.965C238.512 13.1955 238.198 14.3974 237.88 15.5708C238.916 15.5689 239.926 15.594 240.911 15.6461C241.946 15.6442 247.713 15.6375 248.749 15.6356Z" fill="#70B100"/>
<path d="M0.0134986 217.029V202.456C0.0134986 199.271 1.00054 196.828 2.97463 195.098C4.94872 193.378 7.92901 192.513 11.9155 192.513C15.902 192.513 18.8824 193.378 20.8565 195.098C22.8305 196.819 23.8176 199.271 23.8176 202.456V217.029H16.5824V202.19C16.5824 200.85 16.18 199.804 15.3654 199.043C14.5604 198.283 13.4009 197.903 11.906 197.903C10.411 197.903 9.1844 198.273 8.3986 199.015C7.62238 199.756 7.22947 200.812 7.22947 202.18V205.612C8.31235 204.842 9.56772 204.452 11.0052 204.452H13.6596L13.8417 210.109H10.9189C9.48148 210.109 8.25483 210.451 7.23904 211.135V217.02H0.00390625L0.0134986 217.029Z" fill="#0F1599"/>
<path d="M36.9455 217.476C34.3964 217.476 32.3648 216.715 30.8316 215.204C29.2983 213.692 28.5412 211.553 28.5412 208.787V192.969H35.7764V208.169C35.7764 209.538 36.0926 210.536 36.7155 211.154C37.348 211.782 38.3063 212.095 39.5904 212.095C40.5774 212.095 41.5262 211.886 42.4461 211.468C43.3565 211.05 44.0848 210.565 44.6214 209.994V192.969H51.9045V217.039H45.206L44.8898 214.947C43.874 215.717 42.7048 216.335 41.3824 216.801C40.06 217.257 38.5842 217.495 36.9359 217.495L36.9455 217.476Z" fill="#0F1599"/>
<path d="M64.0352 217.476C62.4731 217.476 61.074 217.22 59.8091 216.716C58.5537 216.212 57.5475 215.394 56.8 214.263C56.0525 213.132 55.6788 211.649 55.6788 209.805C55.6788 207.333 56.5125 205.441 58.1704 204.12C59.8282 202.799 62.1761 202.133 65.2043 202.133H71.6728V201.239C71.6728 200.051 71.2607 199.196 70.4366 198.673C69.6124 198.15 68.2421 197.893 66.3255 197.893C64.9168 197.893 63.5368 197.998 62.1665 198.207C60.8057 198.416 59.4641 198.73 58.1416 199.139V193.967C59.397 193.549 60.8919 193.197 62.6169 192.921C64.3418 192.636 66.0189 192.494 67.6671 192.494C71.3853 192.494 74.1931 193.283 76.0905 194.861C77.988 196.439 78.9463 198.853 78.9463 202.124V217.01H71.6632V207.2H66.3159C65.2043 207.2 64.3322 207.381 63.6902 207.732C63.0481 208.094 62.7223 208.787 62.7223 209.824C62.7223 210.774 63.0002 211.43 63.556 211.782C64.1118 212.134 64.9839 212.314 66.1817 212.314C66.6896 212.314 67.1784 212.295 67.6384 212.248C68.0984 212.2 68.5104 212.124 68.8746 212.001V216.811C67.6767 217.229 66.0572 217.438 64.0256 217.438L64.0352 217.476Z" fill="#0F1599"/>
<path d="M82.773 203.121V195.906H88.5228V198.045H94.6367L94.4163 203.121H82.773ZM82.773 214.842V207.627H88.5228V209.814H94.6367L94.4163 214.852H82.7826L82.773 214.842Z" fill="#0F1599"/>
<path d="M98.2286 217.029V202.456C98.2286 199.271 99.2156 196.828 101.19 195.098C103.164 193.378 106.144 192.513 110.131 192.513C114.117 192.513 117.097 193.378 119.072 195.098C121.046 196.819 122.033 199.271 122.033 202.456V217.029H114.798V202.19C114.798 200.85 114.395 199.804 113.58 199.043C112.775 198.283 111.616 197.903 110.121 197.903C108.626 197.903 107.399 198.273 106.614 199.015C105.837 199.756 105.445 200.812 105.445 202.18V205.612C106.527 204.842 107.783 204.452 109.22 204.452H111.875L112.057 210.109H109.134C107.697 210.109 106.47 210.451 105.454 211.135V217.02H98.219L98.2286 217.029Z" fill="#0F1599"/>
<path d="M135.162 217.476C133.399 217.476 131.712 217.352 130.112 217.096C128.511 216.839 127.227 216.525 126.269 216.136V210.517C127.381 210.993 128.617 211.373 129.997 211.649C131.377 211.934 132.632 212.076 133.772 212.076C135.478 212.076 136.695 211.953 137.414 211.715C138.133 211.478 138.497 211.002 138.497 210.289C138.497 209.7 138.286 209.234 137.864 208.911C137.443 208.588 136.791 208.264 135.909 207.951C135.028 207.637 133.878 207.247 132.469 206.772C130.342 206.002 128.713 205.118 127.572 204.12C126.432 203.122 125.867 201.686 125.867 199.823C125.867 197.655 126.729 195.897 128.454 194.537C130.179 193.187 132.785 192.513 136.293 192.513C137.759 192.513 139.225 192.627 140.691 192.845C142.158 193.073 143.346 193.311 144.237 193.577V199.148C143.279 198.73 142.167 198.416 140.912 198.216C139.656 198.007 138.545 197.903 137.586 197.903C136.302 197.903 135.219 198.026 134.347 198.283C133.475 198.53 133.044 199.053 133.044 199.823C133.044 200.327 133.274 200.735 133.744 201.049C134.204 201.363 134.884 201.648 135.766 201.914C136.647 202.18 137.701 202.542 138.938 202.979C140.643 203.606 141.995 204.224 142.982 204.852C143.969 205.479 144.668 206.221 145.071 207.076C145.473 207.941 145.674 209.034 145.674 210.375C145.674 212.666 144.755 214.415 142.915 215.632C141.075 216.849 138.487 217.457 135.162 217.457V217.476Z" fill="#0F1599"/>
<path d="M124.065 190.067L124.429 185.209H135.709C135.766 184.078 136.188 183.099 136.964 182.271C137.74 181.435 138.909 181.026 140.471 181.026C142.033 181.026 143.231 181.463 143.998 182.338C144.765 183.213 145.148 184.258 145.148 185.475C145.148 186.815 144.717 187.909 143.864 188.774C143.011 189.639 141.794 190.067 140.203 190.067H124.065ZM140.462 187.253C140.998 187.253 141.439 187.082 141.765 186.739C142.091 186.397 142.263 185.988 142.263 185.513C142.263 185.009 142.091 184.582 141.746 184.239C141.401 183.897 140.979 183.726 140.462 183.726C139.983 183.726 139.561 183.888 139.206 184.211C138.842 184.543 138.67 184.971 138.67 185.504C138.67 185.979 138.852 186.388 139.206 186.73C139.561 187.072 139.983 187.243 140.462 187.243V187.253Z" fill="#0F1599"/>
<path d="M138.708 179.907V173.67H144.592V179.907H138.708Z" fill="#0F1599"/>
<path d="M159.695 217.476C158.851 217.476 157.922 217.419 156.887 217.295C155.852 217.172 154.961 216.982 154.213 216.716L147.562 200.488H154.616L159.465 212.295C162.972 212.114 164.726 209.443 164.726 204.272C164.726 201.981 164.361 200.431 163.624 199.614C162.886 198.796 161.611 198.387 159.781 198.387H157.979V192.95H161.036C168.281 192.95 171.913 196.724 171.913 204.272C171.913 207.361 171.395 209.881 170.36 211.829C169.325 213.778 167.888 215.204 166.048 216.107C164.208 217.01 162.09 217.467 159.695 217.467V217.476Z" fill="#0F1599"/>
<path d="M247.903 217.495C247.15 217.495 246.595 217.3 246.236 216.908C245.878 216.481 245.806 215.895 246.021 215.148C246.272 214.223 246.72 213.245 247.366 212.213C248.011 211.146 248.603 210.204 249.14 209.386C249.642 208.674 250.198 207.892 250.808 207.038C251.417 206.185 252.08 205.384 252.798 204.637C253.515 203.89 254.285 203.268 255.11 202.77C255.971 202.272 256.867 202.023 257.799 202.023C258.875 202.023 259.735 202.308 260.381 202.877C261.026 203.446 261.528 204.157 261.887 205.011C262.245 205.864 262.496 206.789 262.64 207.785C262.819 208.745 262.98 209.635 263.124 210.453C264.486 208.532 265.651 206.558 266.62 204.531C267.588 202.468 268.359 200.387 268.932 198.288C269.111 197.648 269.255 197.008 269.362 196.368C269.506 195.692 269.631 195.034 269.739 194.394C268.663 194.749 267.57 195.123 266.458 195.514C265.383 195.905 264.307 196.261 263.231 196.581C262.156 196.901 261.08 197.168 260.004 197.381C258.929 197.595 257.853 197.702 256.777 197.702C256.096 197.702 255.343 197.63 254.519 197.488C253.73 197.31 252.995 197.044 252.313 196.688C251.668 196.297 251.166 195.817 250.808 195.247C250.485 194.643 250.431 193.914 250.646 193.06C250.969 191.815 251.74 190.748 252.959 189.859C254.178 188.97 255.54 188.258 257.046 187.725C258.588 187.156 260.13 186.747 261.672 186.498C263.213 186.249 264.468 186.124 265.436 186.124C267.014 186.124 268.502 186.355 269.9 186.818C271.334 187.28 272.428 188.134 273.181 189.379C273.504 189.201 273.898 188.987 274.364 188.738C294.074 179.915 294.576 179.666 295.078 179.417C295.616 179.168 296.118 178.955 296.584 178.777C297.05 178.599 297.444 178.51 297.767 178.51C297.982 178.51 298.233 178.564 298.52 178.67C298.807 178.741 299.058 178.866 299.273 179.044C299.524 179.186 299.721 179.364 299.865 179.577C300.008 179.791 300.044 180.04 299.972 180.324C299.757 180.644 299.363 181 298.789 181.391C298.215 181.782 297.588 182.156 296.907 182.512C296.225 182.867 295.544 183.187 294.863 183.472C294.218 183.756 274.49 192.562 274.095 192.74C274.095 194.803 273.808 196.848 273.235 198.875C273.091 199.444 272.822 200.262 272.428 201.33C272.069 202.361 271.621 203.481 271.083 204.691C270.546 205.9 269.954 207.127 269.309 208.372C268.663 209.617 267.964 210.755 267.211 211.786C266.458 212.818 265.687 213.654 264.899 214.294C264.11 214.934 263.303 215.254 262.478 215.254C261.295 215.254 260.453 214.845 259.951 214.027C259.484 213.209 259.162 212.249 258.982 211.146C258.803 210.008 258.66 208.87 258.552 207.732C258.481 206.558 258.212 205.633 257.745 204.957C257.064 205.384 256.311 206.06 255.487 206.985C254.698 207.91 253.927 208.905 253.174 209.973C252.421 211.04 251.722 212.107 251.076 213.174C250.431 214.205 249.911 215.077 249.517 215.788C249.589 215.895 249.642 216.001 249.678 216.108C249.822 216.321 249.875 216.499 249.84 216.642C249.732 216.997 249.427 217.228 248.925 217.335C248.459 217.442 248.118 217.495 247.903 217.495ZM265.974 189.059C265.329 189.059 264.432 189.165 263.285 189.379C262.174 189.557 261.044 189.841 259.897 190.232C258.785 190.624 257.763 191.122 256.831 191.726C255.935 192.331 255.379 193.042 255.164 193.86C255.092 194.145 255.128 194.358 255.272 194.5C255.451 194.607 255.666 194.661 255.917 194.661C256.885 194.661 257.943 194.536 259.09 194.287C260.273 194.003 261.474 193.682 262.693 193.327C263.913 192.936 265.114 192.509 266.297 192.046C267.516 191.584 268.627 191.175 269.631 190.819C269.345 190.179 268.86 189.734 268.179 189.485C267.498 189.201 266.763 189.059 265.974 189.059Z" fill="#70B100"/>
<path d="M262.111 175.133C262.034 175.298 261.701 175.529 261.111 175.826C260.53 176.089 259.793 176.387 258.9 176.721C258.041 177.063 257.109 177.406 256.102 177.749C255.096 178.092 254.129 178.427 253.2 178.752C252.281 179.043 251.439 179.316 250.675 179.572C249.955 179.801 249.452 179.973 249.166 180.087C247.474 180.667 245.777 181.119 244.075 181.441C242.373 181.763 240.738 181.735 239.17 181.358C238.438 181.182 237.753 180.889 237.116 180.479C236.443 180.061 235.914 179.586 235.527 179.053C235.115 178.478 234.88 177.854 234.823 177.182C234.74 176.466 234.9 175.736 235.304 174.992C235.484 174.706 235.687 174.407 235.911 174.095C236.143 173.748 236.419 173.449 236.739 173.196C237.024 172.935 237.349 172.739 237.714 172.607C238.078 172.475 238.469 172.46 238.887 172.561C239.096 172.611 239.327 172.721 239.581 172.892C239.808 173.02 240.022 173.2 240.224 173.431C240.434 173.628 240.583 173.847 240.672 174.088C240.769 174.295 240.77 174.515 240.676 174.748C240.479 175.103 240.237 175.411 239.952 175.672C239.667 175.933 239.43 176.223 239.241 176.544C238.983 176.994 238.812 177.392 238.727 177.738C238.643 178.083 238.844 178.315 239.332 178.432C240.064 178.608 241.146 178.558 242.579 178.281C244.02 177.969 245.522 177.562 247.084 177.06C248.681 176.566 250.212 176.038 251.678 175.476C253.178 174.922 254.336 174.487 255.152 174.171C255.759 173.951 256.375 173.697 256.999 173.408C257.658 173.128 258.3 172.916 258.925 172.774C259.324 172.651 259.785 172.652 260.308 172.778C260.517 172.828 260.748 172.939 261.001 173.109C261.298 173.254 261.547 173.442 261.749 173.674C261.95 173.905 262.095 174.141 262.184 174.382C262.273 174.623 262.248 174.874 262.111 175.133Z" fill="#70B100"/>
<path d="M237.272 186.286C239.171 186.286 240.749 186.587 242.003 187.192C243.258 187.796 244.209 188.651 244.855 189.754C245.536 190.856 245.911 192.155 245.983 193.648C246.09 195.142 245.894 196.797 245.392 198.611C245.248 199.144 244.998 199.873 244.64 200.798C244.317 201.687 243.922 202.684 243.456 203.786C243.026 204.888 242.541 206.025 242.003 207.199C241.465 208.372 240.927 209.475 240.389 210.507C239.852 211.538 239.316 212.464 238.778 213.282C238.276 214.1 237.827 214.687 237.433 215.043C237.038 215.399 236.679 215.629 236.356 215.736C236.034 215.842 235.658 215.895 235.228 215.895C234.619 215.895 234.081 215.754 233.615 215.469C233.184 215.185 232.878 214.775 232.699 214.241C232.448 213.388 232.305 212.481 232.269 211.522C232.269 210.561 232.305 209.582 232.377 208.586C232.484 207.555 232.556 206.542 232.592 205.547C232.663 204.515 232.61 203.554 232.43 202.665C231.57 203.483 230.71 204.497 229.85 205.707C228.989 206.916 228.145 208.196 227.321 209.548C226.496 210.864 225.726 212.18 225.009 213.495C224.292 214.776 223.664 215.914 223.126 216.91C222.876 217.159 222.625 217.301 222.374 217.337C222.159 217.408 221.907 217.443 221.62 217.443C221.441 217.443 221.208 217.408 220.922 217.337C220.671 217.265 220.436 217.177 220.221 217.07C220.006 216.928 219.827 216.768 219.684 216.591C219.576 216.377 219.558 216.162 219.63 215.949C219.774 215.451 220.062 214.74 220.492 213.815C220.958 212.89 221.494 211.876 222.103 210.773C222.749 209.671 223.45 208.534 224.203 207.361C224.992 206.187 225.762 205.084 226.515 204.053C227.304 203.021 228.056 202.131 228.773 201.384C229.49 200.601 230.118 200.085 230.656 199.836C231.301 199.516 231.982 199.357 232.699 199.357C233.811 199.357 234.637 199.678 235.175 200.318C235.712 200.923 236.07 201.687 236.249 202.612C236.464 203.501 236.553 204.48 236.517 205.547C236.517 206.578 236.499 207.502 236.464 208.32C236.428 208.426 236.41 208.533 236.41 208.64C236.446 208.711 236.446 208.8 236.41 208.906C236.374 208.977 236.356 209.086 236.356 209.228V209.494C237.36 207.61 238.294 205.724 239.154 203.839C240.015 201.919 240.713 199.978 241.251 198.022C241.538 197.027 241.735 196.014 241.842 194.983C241.985 193.951 241.95 193.008 241.735 192.154C241.555 191.301 241.142 190.607 240.497 190.074C239.887 189.54 238.956 189.274 237.701 189.274C236.375 189.274 234.959 189.647 233.453 190.393C231.983 191.14 230.583 192.102 229.257 193.275C227.93 194.413 226.764 195.676 225.761 197.063C224.793 198.45 224.129 199.766 223.771 201.011L223.766 201.023C223.218 202.165 222.111 202.483 220.363 201.616C219.223 201.051 219.244 200.013 219.508 199.126C220.03 197.69 220.786 196.308 221.781 194.983C223.036 193.275 224.507 191.78 226.193 190.5C227.878 189.22 229.689 188.207 231.625 187.46C233.561 186.678 235.443 186.286 237.272 186.286Z" fill="#70B100"/>
<path d="M218.922 190.249C218.599 191.387 218.187 192.525 217.685 193.663C217.219 194.766 216.735 195.886 216.233 197.024C215.372 199.052 215.85 198.111 214.953 200.103C214.093 202.059 213.214 204.051 212.318 206.078C211.96 206.896 211.476 207.946 210.866 209.226C210.292 210.507 209.593 211.769 208.768 213.014C207.98 214.223 207.101 215.273 206.133 216.162C205.165 217.016 204.125 217.442 203.014 217.442C201.902 217.442 201.024 217.176 200.378 216.642C199.733 216.073 199.267 215.344 198.98 214.455C198.693 213.565 198.532 212.57 198.496 211.467C198.496 210.329 198.568 209.191 198.711 208.052C198.855 206.914 199.052 205.812 199.303 204.745C199.554 203.642 199.787 202.699 200.002 201.917L200.163 201.117C198.406 203.464 196.578 205.954 194.678 208.586C192.813 211.182 190.859 213.583 188.815 215.788C188.313 216.286 187.829 216.66 187.363 216.909C186.897 217.158 186.359 217.282 185.75 217.282C184.782 217.282 184.118 216.998 183.76 216.429C183.401 215.86 183.347 215.113 183.598 214.188C184.1 212.374 184.728 210.596 185.481 208.853C186.27 207.074 187.094 205.314 187.955 203.571C188.815 201.828 189.658 200.085 190.483 198.342C191.343 196.564 192.096 194.786 192.741 193.007C191.594 193.825 190.518 194.768 189.514 195.835C188.546 196.866 187.489 197.756 186.341 198.502C186.09 198.68 185.732 198.769 185.266 198.769C184.979 198.769 184.674 198.698 184.351 198.556C184.029 198.414 183.885 198.147 183.921 197.756C184.28 197.329 184.853 196.724 185.642 195.942C186.467 195.159 187.345 194.377 188.277 193.594C189.21 192.776 190.124 192.047 191.02 191.407C191.917 190.766 192.598 190.357 193.064 190.18C193.458 190.037 193.889 189.966 194.355 189.966C195.251 189.966 195.879 190.322 196.237 191.033C196.632 191.709 196.721 192.456 196.506 193.274C196.183 194.483 195.771 195.693 195.269 196.902C194.767 198.076 194.229 199.249 193.656 200.423C193.082 201.597 192.508 202.788 191.935 203.998C191.397 205.171 190.895 206.345 190.429 207.519C192.903 204.353 195.323 201.152 197.689 197.916C198.299 197.133 198.926 196.404 199.572 195.728C200.217 195.052 201.042 194.626 202.046 194.448C202.978 194.448 203.713 194.714 204.251 195.248C204.789 195.746 205.022 196.439 204.95 197.329C204.878 198.645 204.663 200.032 204.305 201.49C203.946 202.913 203.605 204.371 203.283 205.865C202.96 207.323 202.745 208.746 202.637 210.133C202.53 211.52 202.655 212.819 203.014 214.028C203.731 213.316 204.466 212.249 205.219 210.827C206.008 209.404 206.779 207.892 207.531 206.292C208.284 204.656 208.984 203.073 209.629 201.543C210.274 200.014 210.812 198.769 211.242 197.809C211.671 196.933 211.554 196.953 212.414 195.104C213.31 193.218 214.279 191.351 215.318 189.502C215.641 189.217 215.91 189.021 216.125 188.915C216.34 188.808 216.645 188.755 217.039 188.755C217.434 188.755 217.864 188.879 218.33 189.128C218.832 189.377 219.029 189.751 218.922 190.249Z" fill="#70B100"/>
<path d="M297.766 177.937C298.051 177.937 298.35 178.008 298.654 178.116H298.657C298.997 178.2 299.305 178.349 299.577 178.56C299.885 178.739 300.145 178.97 300.339 179.258C300.586 179.626 300.632 180.047 300.527 180.464L300.502 180.562L300.446 180.645C300.17 181.055 299.703 181.459 299.111 181.863C298.517 182.268 297.869 182.655 297.17 183.02C296.478 183.382 295.784 183.704 295.09 183.995L295.092 183.997C294.484 184.265 277.285 191.939 274.658 193.113C274.625 195.098 274.336 197.065 273.786 199.014C273.635 199.612 273.36 200.45 272.966 201.516C272.601 202.566 272.149 203.704 271.606 204.925C271.063 206.145 270.466 207.382 269.816 208.636C269.159 209.904 268.444 211.067 267.673 212.124C266.898 213.186 266.094 214.061 265.258 214.739C264.392 215.442 263.461 215.828 262.477 215.828C261.149 215.828 260.094 215.355 259.462 214.327L259.453 214.312C258.947 213.425 258.603 212.396 258.415 211.238V211.236C258.234 210.086 258.089 208.936 257.98 207.786V207.766C257.931 206.953 257.781 206.3 257.553 205.789C257.058 206.172 256.512 206.694 255.912 207.366C255.139 208.274 254.381 209.253 253.64 210.303C252.894 211.359 252.202 212.415 251.564 213.47L251.559 213.477C250.996 214.377 250.535 215.153 250.168 215.801C250.175 215.817 250.181 215.834 250.187 215.85C250.343 216.098 250.482 216.427 250.392 216.783L250.385 216.807C250.195 217.436 249.66 217.765 249.042 217.896L249.04 217.893C248.575 217.999 248.185 218.067 247.902 218.067C247.058 218.067 246.318 217.847 245.812 217.295L245.795 217.278L246.235 216.91L245.795 217.276C245.271 216.651 245.227 215.845 245.471 214.995C245.74 214.005 246.212 212.975 246.879 211.91C247.525 210.841 248.12 209.896 248.662 209.073L248.671 209.056C249.174 208.343 249.731 207.561 250.341 206.707C250.966 205.831 251.646 205.008 252.382 204.241C253.131 203.461 253.943 202.806 254.814 202.281L254.821 202.276C255.763 201.731 256.758 201.451 257.797 201.451C258.976 201.451 259.985 201.766 260.759 202.449C261.473 203.079 262.025 203.864 262.414 204.79C262.793 205.692 263.055 206.664 263.205 207.703C263.287 208.141 263.36 208.564 263.434 208.973C264.446 207.441 265.338 205.881 266.1 204.285C267.055 202.251 267.814 200.202 268.378 198.138L268.381 198.135C268.555 197.514 268.692 196.892 268.796 196.272L268.801 196.25L269.001 195.262C269.002 195.257 269 195.252 269.001 195.247C268.226 195.508 267.441 195.776 266.647 196.055L266.645 196.053C265.561 196.447 264.477 196.807 263.393 197.129C262.301 197.454 261.208 197.725 260.114 197.942C259.003 198.163 257.89 198.274 256.777 198.274C256.057 198.274 255.27 198.199 254.421 198.052L254.391 198.047C253.557 197.859 252.775 197.575 252.048 197.195L252.031 197.188L252.016 197.178C251.304 196.746 250.733 196.205 250.322 195.552L250.302 195.518C249.895 194.755 249.85 193.871 250.09 192.92V192.918C250.451 191.524 251.313 190.35 252.619 189.397C253.885 188.474 255.298 187.736 256.852 187.185C258.425 186.605 260.001 186.188 261.579 185.933C263.134 185.682 264.423 185.552 265.434 185.552C267.066 185.552 268.614 185.791 270.073 186.272C271.452 186.717 272.557 187.505 273.366 188.626C273.586 188.507 273.828 188.377 274.094 188.235L274.128 188.216C293.84 179.391 294.333 179.146 294.821 178.904L294.836 178.897C295.383 178.643 295.898 178.426 296.379 178.243C296.878 178.052 297.346 177.937 297.766 177.937ZM217.038 188.184C217.553 188.184 218.076 188.345 218.598 188.623H218.596C218.914 188.784 219.192 189.011 219.36 189.329C219.533 189.658 219.555 190.017 219.479 190.369L219.474 190.389L219.47 190.406C219.139 191.57 218.719 192.734 218.207 193.894C217.741 194.997 217.257 196.118 216.755 197.256C216.332 198.253 216.237 198.516 216.14 198.777C216.033 199.062 215.921 199.337 215.473 200.332L215.475 200.335C214.615 202.29 213.735 204.28 212.839 206.307C212.477 207.132 211.992 208.19 211.381 209.473C210.795 210.779 210.083 212.065 209.245 213.33L209.243 213.328C208.431 214.572 207.524 215.661 206.518 216.585L206.511 216.592C205.456 217.522 204.285 218.016 203.012 218.016C201.811 218.015 200.789 217.725 200.012 217.083L199.999 217.071C199.271 216.428 198.75 215.61 198.434 214.632C198.129 213.683 197.959 212.631 197.922 211.485V211.468C197.922 210.305 197.995 209.143 198.141 207.981C198.287 206.825 198.487 205.704 198.742 204.617C198.815 204.298 198.89 203.992 198.959 203.699C197.721 205.373 196.447 207.112 195.141 208.921C193.264 211.536 191.293 213.954 189.233 216.177L189.218 216.194L188.813 215.789L189.216 216.194C188.687 216.719 188.16 217.133 187.631 217.415C187.071 217.714 186.437 217.854 185.749 217.854C184.678 217.854 183.778 217.536 183.273 216.734C182.799 215.98 182.769 215.05 183.044 214.038L183.046 214.036C183.555 212.197 184.19 210.393 184.953 208.626L184.955 208.621C185.747 206.835 186.577 205.068 187.441 203.318C188.3 201.579 189.14 199.838 189.963 198.099L189.965 198.094C190.503 196.983 190.992 195.871 191.445 194.761C190.923 195.219 190.419 195.707 189.931 196.226C188.933 197.29 187.839 198.21 186.652 198.982L186.65 198.98C186.267 199.243 185.782 199.341 185.263 199.341C184.881 199.341 184.497 199.247 184.118 199.08C183.86 198.966 183.637 198.784 183.495 198.521C183.357 198.263 183.324 197.978 183.349 197.703L183.366 197.525L183.481 197.388C183.857 196.941 184.447 196.32 185.239 195.535L185.246 195.528C186.077 194.74 186.961 193.951 187.897 193.164L188.603 192.559C189.306 191.97 190 191.43 190.685 190.94C191.585 190.298 192.318 189.852 192.858 189.646L192.868 189.641C193.331 189.474 193.828 189.395 194.352 189.395C194.876 189.395 195.36 189.497 195.778 189.734C196.19 189.968 196.504 190.314 196.728 190.745C197.146 191.461 197.277 192.243 197.136 193.064L197.057 193.421C196.728 194.656 196.307 195.89 195.795 197.122L195.793 197.127C195.287 198.309 194.747 199.492 194.169 200.674C193.718 201.598 193.268 202.534 192.817 203.479C194.306 201.525 195.777 199.56 197.226 197.578L197.236 197.564C197.856 196.767 198.498 196.023 199.157 195.332C199.894 194.561 200.833 194.082 201.945 193.885L201.994 193.875H202.045C203.091 193.875 203.984 194.179 204.653 194.842H204.65C205.335 195.484 205.601 196.36 205.519 197.376C205.445 198.727 205.222 200.144 204.858 201.626V201.631C204.501 203.047 204.161 204.499 203.84 205.987V205.989C203.522 207.423 203.313 208.82 203.207 210.179C203.136 211.095 203.172 211.965 203.312 212.791C203.759 212.202 204.232 211.465 204.711 210.559L204.716 210.55C205.498 209.139 206.263 207.638 207.011 206.048C207.761 204.418 208.459 202.843 209.101 201.321C209.747 199.79 210.287 198.542 210.72 197.576L210.727 197.557C210.929 197.143 211 196.949 211.132 196.612C211.268 196.265 211.459 195.797 211.894 194.864L211.896 194.859C212.798 192.962 213.773 191.082 214.819 189.222L214.865 189.136L214.938 189.073C215.274 188.777 215.586 188.541 215.869 188.401C216.198 188.238 216.605 188.184 217.038 188.184ZM237.27 185.713C239.225 185.713 240.895 186.023 242.25 186.675C243.594 187.322 244.631 188.25 245.339 189.453H245.341C246.078 190.647 246.475 192.038 246.552 193.606L246.579 194.204C246.608 195.613 246.392 197.134 245.942 198.763C245.79 199.325 245.533 200.075 245.173 201.004L245.17 201.001C244.844 201.9 244.449 202.904 243.981 204.009C243.548 205.118 243.061 206.26 242.521 207.437C241.98 208.619 241.438 209.731 240.895 210.772C240.354 211.81 239.809 212.746 239.262 213.579L239.265 213.582C238.753 214.416 238.27 215.059 237.814 215.469C237.39 215.852 236.962 216.138 236.535 216.28C236.142 216.41 235.702 216.468 235.226 216.468C234.525 216.468 233.881 216.303 233.315 215.957L233.298 215.948C232.752 215.586 232.371 215.067 232.155 214.424L232.148 214.402C231.883 213.5 231.734 212.546 231.696 211.543V211.521C231.696 210.547 231.731 209.554 231.804 208.545L231.806 208.528C231.912 207.51 231.983 206.509 232.018 205.528V205.508C232.057 204.951 232.053 204.419 232.016 203.912C231.453 204.53 230.884 205.237 230.314 206.038C229.462 207.236 228.625 208.506 227.807 209.847L227.805 209.851C226.986 211.158 226.221 212.465 225.51 213.77L225.507 213.775C224.791 215.053 224.163 216.19 223.627 217.183L223.588 217.256L223.527 217.317C223.247 217.595 222.921 217.801 222.551 217.879C222.264 217.973 221.949 218.016 221.618 218.016C221.373 218.015 221.089 217.969 220.783 217.893L220.764 217.889C220.483 217.809 220.215 217.707 219.965 217.583L219.933 217.566L219.904 217.547C219.647 217.377 219.422 217.179 219.238 216.951L219.199 216.902L219.172 216.849C219.004 216.515 218.965 216.151 219.079 215.791L219.223 215.347C219.395 214.865 219.648 214.272 219.973 213.575L219.98 213.557C220.449 212.626 220.988 211.604 221.601 210.496L221.608 210.484C222.258 209.374 222.964 208.23 223.72 207.051L223.727 207.041C224.519 205.863 225.294 204.754 226.052 203.716L226.059 203.706C226.857 202.662 227.623 201.753 228.359 200.987C228.997 200.291 229.602 199.761 230.17 199.441L230.414 199.317C231.134 198.963 231.898 198.785 232.697 198.785C233.919 198.785 234.933 199.143 235.612 199.952H235.61C236.215 200.637 236.608 201.487 236.804 202.478L236.95 203.203C237.07 203.94 237.113 204.722 237.087 205.547H237.089C237.089 206 237.081 206.433 237.075 206.846C237.616 205.764 238.138 204.683 238.632 203.601C239.48 201.708 240.168 199.797 240.698 197.871L240.7 197.864C240.977 196.902 241.167 195.922 241.271 194.925L241.274 194.905C241.409 193.934 241.372 193.065 241.179 192.295L241.174 192.271C241.02 191.54 240.672 190.963 240.131 190.516L240.119 190.506C239.658 190.103 238.888 189.847 237.7 189.847C236.482 189.847 235.152 190.189 233.705 190.906C232.284 191.629 230.924 192.562 229.633 193.704L229.628 193.709C228.335 194.818 227.199 196.048 226.223 197.398C225.283 198.745 224.654 200.003 224.318 201.17L224.311 201.197L224.299 201.226L224.294 201.238L224.289 201.255L224.279 201.27C223.944 201.968 223.4 202.478 222.626 202.635C221.886 202.784 221.036 202.59 220.107 202.129C219.391 201.774 218.995 201.237 218.849 200.623C218.713 200.042 218.812 199.448 218.957 198.963L218.967 198.931H218.969C219.511 197.439 220.294 196.009 221.318 194.644C222.605 192.893 224.115 191.358 225.844 190.044C227.569 188.734 229.425 187.695 231.408 186.929C233.402 186.123 235.358 185.713 237.27 185.713ZM297.766 179.082C297.54 179.082 297.219 179.147 296.787 179.312C296.335 179.484 295.845 179.692 295.317 179.937C294.805 180.191 294.12 180.519 274.626 189.246C274.164 189.493 273.775 189.705 273.456 189.881L272.973 190.144L272.69 189.676C272.011 188.553 271.031 187.785 269.724 187.364L269.719 187.361C268.382 186.919 266.955 186.697 265.434 186.697C264.509 186.697 263.289 186.817 261.762 187.063C260.259 187.306 258.752 187.705 257.243 188.262L257.236 188.265C255.779 188.781 254.467 189.468 253.295 190.323C252.165 191.147 251.483 192.105 251.198 193.199C251.012 193.938 251.07 194.507 251.296 194.949C251.599 195.429 252.028 195.844 252.599 196.192C253.22 196.513 253.89 196.759 254.614 196.924C255.413 197.062 256.134 197.129 256.777 197.129C257.814 197.129 258.853 197.028 259.892 196.822C260.949 196.612 262.007 196.348 263.066 196.033C264.13 195.716 265.196 195.363 266.262 194.976H266.266C267.381 194.584 268.478 194.207 269.557 193.85L270.458 193.553L270.302 194.49C270.193 195.139 270.066 195.804 269.921 196.487C269.811 197.14 269.664 197.792 269.482 198.443C268.899 200.573 268.116 202.683 267.136 204.773L267.133 204.778C266.15 206.836 264.969 208.838 263.588 210.784L262.795 211.902L262.558 210.552C262.415 209.737 262.254 208.849 262.075 207.891L262.072 207.867C261.935 206.915 261.695 206.037 261.357 205.232C261.029 204.453 260.577 203.814 260.002 203.306C259.485 202.851 258.77 202.596 257.797 202.596C256.976 202.596 256.179 202.81 255.402 203.257L255.405 203.26C254.626 203.73 253.895 204.321 253.21 205.035C252.512 205.761 251.865 206.54 251.271 207.371C250.663 208.224 250.107 209.005 249.606 209.715C249.076 210.522 248.492 211.454 247.853 212.51L247.849 212.517C247.225 213.513 246.805 214.44 246.572 215.298L246.569 215.306C246.388 215.934 246.479 216.295 246.662 216.524C246.874 216.752 247.245 216.924 247.902 216.924C248.048 216.924 248.334 216.883 248.796 216.778L248.806 216.775C249.102 216.712 249.212 216.616 249.26 216.538C249.248 216.514 249.233 216.477 249.201 216.429L249.16 216.363L249.135 216.289C249.118 216.238 249.087 216.176 249.04 216.106L248.845 215.816L249.016 215.511C249.416 214.787 249.942 213.907 250.59 212.871C251.242 211.795 251.946 210.719 252.704 209.644C253.467 208.564 254.25 207.553 255.051 206.614L255.058 206.604C255.901 205.659 256.696 204.94 257.441 204.473L257.905 204.182L258.215 204.632C258.757 205.419 259.043 206.452 259.12 207.679L259.306 209.368C259.377 209.93 259.457 210.493 259.545 211.055L259.699 211.812C259.875 212.533 260.121 213.171 260.436 213.728L260.588 213.943C260.972 214.417 261.569 214.683 262.477 214.683C263.142 214.683 263.825 214.427 264.536 213.85C265.277 213.248 266.017 212.452 266.747 211.451C267.482 210.445 268.165 209.33 268.798 208.108C269.439 206.873 270.026 205.657 270.558 204.458C271.091 203.261 271.534 202.156 271.887 201.143L271.889 201.131C272.282 200.069 272.542 199.274 272.678 198.736L272.682 198.719C273.242 196.741 273.522 194.748 273.522 192.74V192.371L273.859 192.22C274.263 192.038 293.982 183.236 294.631 182.95L294.641 182.945C295.306 182.667 295.973 182.353 296.64 182.005C297.303 181.658 297.913 181.296 298.466 180.918C298.947 180.591 299.248 180.312 299.421 180.096C299.431 180 299.42 179.944 299.389 179.898C299.301 179.767 299.172 179.645 298.989 179.541L298.945 179.517L298.908 179.485C298.763 179.365 298.589 179.278 298.381 179.226L298.349 179.219L298.32 179.207C298.072 179.115 297.89 179.082 297.766 179.082ZM217.038 189.327C216.683 189.327 216.48 189.377 216.379 189.427C216.241 189.495 216.038 189.637 215.761 189.876C214.749 191.681 213.804 193.503 212.929 195.342L212.932 195.345C212.506 196.259 212.324 196.707 212.197 197.032C212.066 197.364 211.981 197.6 211.755 198.062L211.752 198.059C211.326 199.012 210.796 200.248 210.156 201.766C209.508 203.301 208.804 204.89 208.049 206.531V206.536C207.291 208.147 206.513 209.669 205.717 211.104C204.953 212.547 204.188 213.667 203.415 214.434L202.736 215.108L202.463 214.19C202.083 212.907 201.952 211.538 202.065 210.088C202.175 208.673 202.394 207.224 202.722 205.743C203.045 204.243 203.387 202.779 203.747 201.35C204.098 199.923 204.307 198.573 204.377 197.298V197.283C204.438 196.527 204.24 196.022 203.859 195.669L203.847 195.655C203.449 195.26 202.887 195.03 202.097 195.02C201.224 195.183 200.528 195.554 199.985 196.123C199.356 196.782 198.743 197.495 198.146 198.26C195.778 201.499 193.355 204.703 190.878 207.871L189.894 207.307C190.364 206.125 190.871 204.942 191.413 203.76L191.415 203.753C191.99 202.542 192.564 201.347 193.139 200.171C193.708 199.006 194.243 197.842 194.741 196.678C195.232 195.493 195.636 194.31 195.952 193.128L196.008 192.876C196.109 192.298 196.014 191.788 195.742 191.321L195.724 191.292C195.591 191.026 195.419 190.847 195.214 190.73C195.005 190.612 194.725 190.54 194.352 190.54C193.949 190.54 193.587 190.598 193.264 190.713L193.266 190.716C192.874 190.866 192.244 191.236 191.352 191.873C190.473 192.501 189.574 193.217 188.654 194.024L188.644 194.034C187.72 194.809 186.85 195.584 186.035 196.358C185.353 197.034 184.846 197.568 184.501 197.962C184.504 197.97 184.503 197.977 184.504 197.979C184.506 197.983 184.517 198.005 184.579 198.033C184.845 198.15 185.072 198.196 185.263 198.196C185.668 198.196 185.891 198.117 186.008 198.035L186.027 198.023C187.135 197.302 188.158 196.444 189.096 195.445V195.442C190.124 194.349 191.228 193.382 192.407 192.542L193.906 191.475L193.278 193.203C192.627 194.999 191.863 196.791 190.995 198.584L190.998 198.587C190.172 200.332 189.328 202.078 188.466 203.824C187.61 205.557 186.788 207.309 186.003 209.078L186.005 209.08C185.263 210.798 184.642 212.549 184.147 214.336C183.92 215.173 184.001 215.739 184.243 216.123C184.455 216.46 184.883 216.709 185.749 216.709C186.278 216.709 186.721 216.602 187.092 216.404C187.493 216.19 187.931 215.858 188.403 215.391C190.426 213.207 192.362 210.827 194.211 208.252L197.011 204.407C197.927 203.161 198.824 201.95 199.704 200.774L200.722 201.231L200.561 202.032L200.558 202.049L200.551 202.068C200.339 202.84 200.11 203.774 199.86 204.871L199.858 204.876C199.612 205.922 199.418 207.006 199.277 208.125C199.137 209.233 199.068 210.341 199.067 211.448L199.116 212.22C199.186 212.97 199.322 213.657 199.523 214.28C199.78 215.076 200.191 215.712 200.749 216.206C201.262 216.627 201.994 216.87 203.012 216.87C203.959 216.87 204.865 216.512 205.744 215.74C206.673 214.886 207.523 213.876 208.288 212.703L208.29 212.698C209.099 211.478 209.781 210.242 210.341 208.992L210.349 208.98C210.956 207.703 211.436 206.66 211.791 205.85L211.794 205.848C212.69 203.821 213.568 201.829 214.428 199.873L214.431 199.869C214.877 198.876 214.977 198.627 215.07 198.377C215.172 198.104 215.271 197.825 215.705 196.802L215.707 196.795C216.208 195.659 216.69 194.54 217.155 193.44L217.16 193.433C217.65 192.322 218.049 191.212 218.364 190.105C218.388 189.975 218.369 189.906 218.347 189.864C218.32 189.813 218.251 189.73 218.073 189.641L218.058 189.634C217.648 189.415 217.312 189.327 217.038 189.327ZM237.27 186.858C235.525 186.858 233.715 187.232 231.838 187.991L231.828 187.994C229.944 188.721 228.18 189.707 226.537 190.955C224.896 192.202 223.463 193.66 222.241 195.323L222.238 195.328C221.282 196.601 220.556 197.921 220.056 199.29L219.98 199.585C219.921 199.872 219.912 200.136 219.965 200.362C220.029 200.629 220.191 200.894 220.615 201.104C221.434 201.51 222.012 201.59 222.399 201.512C222.747 201.441 223.025 201.226 223.237 200.796C223.62 199.493 224.311 198.139 225.29 196.736L225.295 196.729C226.325 195.305 227.522 194.009 228.881 192.842C230.24 191.641 231.678 190.653 233.193 189.883L233.198 189.881C234.762 189.105 236.265 188.702 237.7 188.702C239.011 188.702 240.099 188.978 240.856 189.632H240.859C241.602 190.246 242.08 191.05 242.287 192.015L242.368 192.369C242.529 193.2 242.536 194.092 242.407 195.039L242.409 195.042C242.298 196.103 242.093 197.146 241.799 198.172L241.801 198.174C241.255 200.159 240.547 202.126 239.675 204.073L239.672 204.078C238.807 205.973 237.869 207.869 236.86 209.764L235.783 209.495V209.229C235.783 209.099 235.793 208.94 235.842 208.787L235.837 208.775V208.641C235.837 208.505 235.859 208.372 235.893 208.243C235.927 207.448 235.944 206.55 235.944 205.547V205.528C235.979 204.504 235.891 203.578 235.69 202.747L235.685 202.72C235.522 201.88 235.204 201.214 234.745 200.699L234.736 200.686C234.34 200.215 233.699 199.93 232.697 199.93C232.069 199.93 231.474 200.069 230.908 200.349L230.895 200.357C230.461 200.558 229.894 201.007 229.194 201.77L229.184 201.78C228.485 202.508 227.746 203.381 226.967 204.4C226.222 205.422 225.46 206.517 224.677 207.681L224.675 207.679C223.928 208.843 223.233 209.971 222.595 211.062C221.995 212.148 221.466 213.146 221.008 214.056C220.58 214.974 220.308 215.655 220.178 216.109L220.173 216.131H220.17C220.155 216.177 220.155 216.221 220.175 216.28C220.265 216.381 220.374 216.48 220.51 216.573C220.677 216.653 220.861 216.725 221.064 216.783C221.327 216.847 221.506 216.87 221.618 216.87C221.86 216.87 222.051 216.84 222.194 216.792L222.241 216.778L222.292 216.77C222.373 216.759 222.497 216.705 222.668 216.548C223.196 215.571 223.812 214.46 224.509 213.216C225.23 211.892 226.004 210.567 226.833 209.244C227.663 207.883 228.515 206.595 229.382 205.376C230.258 204.145 231.143 203.1 232.036 202.251L232.785 201.536L232.99 202.552C233.181 203.497 233.236 204.511 233.161 205.586C233.125 206.583 233.051 207.596 232.944 208.626C232.873 209.608 232.841 210.575 232.841 211.521C232.877 212.427 233.011 213.277 233.244 214.073C233.385 214.484 233.611 214.778 233.915 214.983C234.28 215.205 234.712 215.323 235.226 215.323C235.611 215.323 235.925 215.276 236.176 215.193C236.394 215.121 236.685 214.947 237.048 214.62C237.381 214.319 237.796 213.786 238.288 212.984L238.298 212.969C238.823 212.17 239.349 211.26 239.88 210.242C240.413 209.22 240.947 208.126 241.481 206.961C242.015 205.797 242.496 204.67 242.922 203.579L242.927 203.565C243.39 202.469 243.782 201.481 244.101 200.603L244.106 200.591C244.461 199.674 244.703 198.967 244.838 198.462V198.457C245.327 196.691 245.511 195.104 245.41 193.689V193.677C245.342 192.265 244.99 191.062 244.367 190.054L244.36 190.044C243.777 189.049 242.914 188.268 241.752 187.708C240.598 187.152 239.113 186.858 237.27 186.858ZM265.974 188.487C266.822 188.487 267.623 188.64 268.371 188.948H268.373C269.194 189.248 269.801 189.8 270.153 190.586L270.405 191.153L269.821 191.358C268.822 191.712 267.714 192.12 266.498 192.581L266.496 192.578C265.304 193.044 264.094 193.478 262.866 193.872L262.853 193.877H262.851C261.624 194.235 260.415 194.557 259.223 194.844L259.211 194.847C258.032 195.102 256.931 195.232 255.915 195.232C255.582 195.232 255.261 195.162 254.977 194.993L254.916 194.956L254.868 194.908C254.522 194.564 254.51 194.104 254.606 193.721L254.609 193.716C254.868 192.73 255.532 191.913 256.511 191.253L256.518 191.245C257.49 190.615 258.553 190.098 259.704 189.693L259.711 189.69C260.882 189.291 262.037 189 263.178 188.816C264.337 188.601 265.276 188.487 265.974 188.487ZM265.974 189.632C265.381 189.632 264.524 189.731 263.388 189.942L263.373 189.944C262.296 190.117 261.199 190.393 260.08 190.774L260.078 190.772C259.009 191.149 258.031 191.63 257.141 192.207C256.336 192.753 255.887 193.353 255.715 193.997L255.717 193.999C255.711 194.024 255.71 194.047 255.707 194.065C255.764 194.079 255.832 194.09 255.915 194.09C256.831 194.09 257.844 193.969 258.954 193.728C260.123 193.447 261.311 193.133 262.516 192.781C263.724 192.394 264.914 191.972 266.086 191.514L266.093 191.512C267.047 191.15 267.936 190.822 268.759 190.525C268.556 190.308 268.3 190.139 267.98 190.022L267.956 190.015C267.35 189.762 266.691 189.632 265.974 189.632ZM237.516 172.071C237.998 171.897 238.506 171.881 239.02 172.005C239.304 172.073 239.582 172.214 239.858 172.395C240.136 172.552 240.387 172.762 240.615 173.015L240.803 173.211C240.978 173.414 241.116 173.642 241.208 173.892H241.203C241.354 174.245 241.346 174.612 241.205 174.961L241.193 174.995L241.174 175.027C240.948 175.433 240.669 175.79 240.336 176.094C240.093 176.316 239.892 176.559 239.733 176.827L239.736 176.829C239.51 177.224 239.369 177.552 239.296 177.818C239.334 177.835 239.387 177.858 239.465 177.876C240.072 178.022 241.051 177.992 242.46 177.72C243.88 177.413 245.362 177.013 246.906 176.516L246.913 176.514C248.499 176.024 250.018 175.499 251.472 174.942L251.479 174.939C252.978 174.386 254.132 173.952 254.943 173.638L254.955 173.633C255.546 173.419 256.147 173.171 256.757 172.889L256.772 172.881C257.444 172.595 258.106 172.38 258.754 172.229V172.227C258.761 172.225 258.769 172.224 258.776 172.222C258.783 172.221 258.789 172.219 258.796 172.217V172.22C259.306 172.071 259.86 172.083 260.439 172.222C260.729 172.292 261.017 172.435 261.298 172.622C261.638 172.795 261.936 173.018 262.18 173.299C262.418 173.572 262.602 173.868 262.719 174.185C262.869 174.592 262.814 175 262.624 175.374L262.626 175.376C262.625 175.379 262.62 175.381 262.619 175.384C262.616 175.389 262.617 175.396 262.614 175.401L262.612 175.398C262.499 175.619 262.293 175.787 262.128 175.901C261.931 176.038 261.672 176.184 261.367 176.338L261.345 176.348C260.75 176.617 260.003 176.917 259.108 177.251C258.24 177.597 257.3 177.946 256.286 178.291C255.281 178.634 254.315 178.967 253.388 179.292L253.371 179.3V179.297C252.454 179.587 251.616 179.861 250.856 180.115L250.847 180.118C250.127 180.346 249.642 180.512 249.377 180.618L249.35 180.628C247.633 181.217 245.909 181.677 244.179 182.005C242.404 182.341 240.687 182.312 239.035 181.914C238.241 181.723 237.495 181.404 236.804 180.96V180.957C236.085 180.509 235.499 179.99 235.063 179.39L235.06 179.388C234.594 178.737 234.321 178.021 234.252 177.246C234.154 176.395 234.35 175.548 234.799 174.72L234.819 174.685C235.006 174.389 235.215 174.082 235.444 173.763C235.707 173.373 236.02 173.034 236.384 172.747C236.717 172.449 237.095 172.223 237.516 172.071ZM238.752 173.118C238.431 173.041 238.154 173.056 237.907 173.145C237.613 173.251 237.353 173.409 237.123 173.619L237.109 173.633L237.092 173.645C236.82 173.86 236.584 174.116 236.384 174.414L236.374 174.429C236.16 174.727 235.966 175.009 235.795 175.279C235.532 175.768 235.399 176.232 235.375 176.675L235.39 177.117L235.392 177.134C235.44 177.698 235.634 178.224 235.988 178.719L236.266 179.058C236.468 179.279 236.704 179.492 236.977 179.695L237.416 179.993L237.424 179.998C238.008 180.373 238.633 180.64 239.301 180.801C240.784 181.158 242.338 181.187 243.967 180.879C245.641 180.562 247.312 180.118 248.979 179.546C249.289 179.424 249.8 179.249 250.5 179.026L253.027 178.206C253.951 177.882 254.916 177.549 255.917 177.207C256.915 176.867 257.838 176.527 258.686 176.189L258.698 176.184C259.574 175.857 260.292 175.566 260.854 175.313C261.136 175.17 261.341 175.053 261.476 174.959C261.544 174.912 261.584 174.878 261.606 174.856C261.632 174.831 261.613 174.843 261.591 174.891L261.603 174.866L261.662 174.695C261.666 174.65 261.657 174.613 261.645 174.58C261.585 174.416 261.48 174.24 261.315 174.051C261.168 173.881 260.982 173.737 260.749 173.623L260.712 173.606L260.681 173.584C260.462 173.437 260.294 173.365 260.173 173.335C259.723 173.227 259.37 173.236 259.094 173.321L259.072 173.328L259.05 173.333C258.462 173.467 257.852 173.667 257.221 173.936C256.589 174.228 255.962 174.486 255.344 174.71C254.526 175.027 253.37 175.459 251.879 176.009C250.401 176.575 248.858 177.11 247.25 177.608C245.676 178.114 244.159 178.525 242.7 178.841L242.687 178.843L242.578 178.282L242.685 178.843C241.234 179.124 240.051 179.196 239.196 178.99C238.904 178.919 238.595 178.794 238.381 178.548C238.137 178.268 238.093 177.923 238.171 177.603L238.264 177.283C238.375 176.96 238.537 176.618 238.742 176.26L238.747 176.253C238.966 175.882 239.24 175.547 239.565 175.249C239.79 175.043 239.982 174.799 240.146 174.515C240.179 174.423 240.174 174.375 240.153 174.331L240.141 174.309L240.134 174.285C240.079 174.138 239.984 173.991 239.831 173.848L239.809 173.828L239.789 173.807C239.624 173.616 239.459 173.482 239.299 173.391L239.26 173.367C239.041 173.22 238.873 173.147 238.752 173.118Z" fill="#70B100"/>
</g>
<defs>
<clipPath id="clip0_1323_48079">
<rect width="300" height="220" fill="white" transform="translate(0.00390625 -0.00390625)"/>
</clipPath>
</defs>
</svg>
